<svg width="32" height="32" viewBox="0 0 32 32" fill="none" xmlns="http://www.w3.org/2000/svg">
<path d="M25.3333 29.3334H6.66667C5.19391 29.3334 4 28.1394 4 26.6667V8.00002C4 6.52726 5.19391 5.33335 6.66667 5.33335H9.33333V2.66669H12V5.33335H20V2.66669H22.6667V5.33335H25.3333C26.8061 5.33335 28 6.52726 28 8.00002V26.6667C28 28.1394 26.8061 29.3334 25.3333 29.3334ZM6.66667 13.3334V26.6667H25.3333V13.3334H6.66667ZM6.66667 8.00002V10.6667H25.3333V8.00002H6.66667ZM22.6667 24H20V21.3334H22.6667V24ZM17.3333 24H14.6667V21.3334H17.3333V24ZM12 24H9.33333V21.3334H12V24ZM22.6667 18.6667H20V16H22.6667V18.6667ZM17.3333 18.6667H14.6667V16H17.3333V18.6667ZM12 18.6667H9.33333V16H12V18.6667Z" fill="white"/>
</svg>
