<svg width="185" height="34" viewBox="0 0 185 34" fill="none" xmlns="http://www.w3.org/2000/svg">
<path d="M9.96022 23.22C10.8602 23.22 11.6162 23.112 12.2282 22.896C12.8402 22.68 13.3262 22.392 13.6862 22.032C14.0582 21.672 14.3222 21.252 14.4782 20.772C14.6462 20.292 14.7302 19.782 14.7302 19.242C14.7302 18.678 14.6402 18.174 14.4602 17.73C14.2802 17.274 13.9982 16.89 13.6142 16.578C13.2302 16.254 12.7322 16.008 12.1202 15.84C11.5202 15.672 10.7942 15.588 9.94222 15.588H5.06422V23.22H9.96022ZM5.06422 4.716V12.24H8.91622C10.5722 12.24 11.8202 11.94 12.6602 11.34C13.5122 10.74 13.9382 9.786 13.9382 8.478C13.9382 7.122 13.5542 6.156 12.7862 5.58C12.0182 5.004 10.8182 4.716 9.18622 4.716H5.06422ZM9.18622 0.971998C10.8902 0.971998 12.3482 1.134 13.5602 1.458C14.7722 1.782 15.7622 2.244 16.5302 2.844C17.3102 3.444 17.8802 4.17 18.2402 5.022C18.6002 5.874 18.7802 6.834 18.7802 7.902C18.7802 8.514 18.6902 9.102 18.5102 9.666C18.3302 10.218 18.0482 10.74 17.6642 11.232C17.2922 11.712 16.8122 12.15 16.2242 12.546C15.6482 12.942 14.9582 13.278 14.1542 13.554C17.7302 14.358 19.5182 16.29 19.5182 19.35C19.5182 20.454 19.3082 21.474 18.8882 22.41C18.4682 23.346 17.8562 24.156 17.0522 24.84C16.2482 25.512 15.2582 26.04 14.0822 26.424C12.9062 26.808 11.5622 27 10.0502 27H0.222219V0.971998H9.18622ZM39.6048 8.532L29.5428 32.076C29.4108 32.388 29.2368 32.622 29.0208 32.778C28.8168 32.946 28.4988 33.03 28.0668 33.03H24.7548L28.2108 25.614L20.7408 8.532H24.6468C24.9948 8.532 25.2648 8.616 25.4568 8.784C25.6608 8.952 25.8108 9.144 25.9068 9.36L29.8308 18.936C29.9628 19.26 30.0708 19.584 30.1548 19.908C30.2508 20.232 30.3408 20.562 30.4248 20.898C30.5328 20.562 30.6408 20.232 30.7488 19.908C30.8568 19.572 30.9768 19.242 31.1088 18.918L34.8168 9.36C34.9128 9.12 35.0688 8.922 35.2848 8.766C35.5128 8.61 35.7648 8.532 36.0408 8.532H39.6048ZM51.1473 19.116C49.8633 19.176 48.7833 19.29 47.9073 19.458C47.0313 19.614 46.3293 19.818 45.8013 20.07C45.2733 20.322 44.8953 20.616 44.6673 20.952C44.4393 21.288 44.3253 21.654 44.3253 22.05C44.3253 22.83 44.5533 23.388 45.0093 23.724C45.4773 24.06 46.0833 24.228 46.8273 24.228C47.7393 24.228 48.5253 24.066 49.1853 23.742C49.8573 23.406 50.5113 22.902 51.1473 22.23V19.116ZM40.9593 11.106C43.0833 9.162 45.6393 8.19 48.6273 8.19C49.7073 8.19 50.6733 8.37 51.5253 8.73C52.3773 9.078 53.0973 9.57 53.6853 10.206C54.2733 10.83 54.7173 11.58 55.0173 12.456C55.3293 13.332 55.4853 14.292 55.4853 15.336V27H53.4693C53.0493 27 52.7253 26.94 52.4973 26.82C52.2693 26.688 52.0893 26.43 51.9573 26.046L51.5613 24.714C51.0933 25.134 50.6373 25.506 50.1933 25.83C49.7493 26.142 49.2873 26.406 48.8073 26.622C48.3273 26.838 47.8113 27 47.2593 27.108C46.7193 27.228 46.1193 27.288 45.4593 27.288C44.6793 27.288 43.9593 27.186 43.2993 26.982C42.6393 26.766 42.0693 26.448 41.5893 26.028C41.1093 25.608 40.7373 25.086 40.4733 24.462C40.2093 23.838 40.0773 23.112 40.0773 22.284C40.0773 21.816 40.1553 21.354 40.3113 20.898C40.4673 20.43 40.7193 19.986 41.0673 19.566C41.4273 19.146 41.8893 18.75 42.4533 18.378C43.0173 18.006 43.7073 17.682 44.5233 17.406C45.3513 17.13 46.3113 16.908 47.4033 16.74C48.4953 16.56 49.7433 16.452 51.1473 16.416V15.336C51.1473 14.1 50.8833 13.188 50.3553 12.6C49.8273 12 49.0653 11.7 48.0693 11.7C47.3493 11.7 46.7493 11.784 46.2693 11.952C45.8013 12.12 45.3873 12.312 45.0273 12.528C44.6673 12.732 44.3373 12.918 44.0373 13.086C43.7493 13.254 43.4253 13.338 43.0653 13.338C42.7533 13.338 42.4893 13.26 42.2733 13.104C42.0573 12.936 41.8833 12.744 41.7513 12.528L40.9593 11.106ZM69.4286 19.116C68.1446 19.176 67.0646 19.29 66.1886 19.458C65.3126 19.614 64.6106 19.818 64.0826 20.07C63.5546 20.322 63.1766 20.616 62.9486 20.952C62.7206 21.288 62.6066 21.654 62.6066 22.05C62.6066 22.83 62.8346 23.388 63.2906 23.724C63.7586 24.06 64.3646 24.228 65.1086 24.228C66.0206 24.228 66.8066 24.066 67.4666 23.742C68.1386 23.406 68.7926 22.902 69.4286 22.23V19.116ZM59.2406 11.106C61.3646 9.162 63.9206 8.19 66.9086 8.19C67.9886 8.19 68.9546 8.37 69.8066 8.73C70.6586 9.078 71.3786 9.57 71.9666 10.206C72.5546 10.83 72.9986 11.58 73.2986 12.456C73.6106 13.332 73.7666 14.292 73.7666 15.336V27H71.7506C71.3306 27 71.0066 26.94 70.7786 26.82C70.5506 26.688 70.3706 26.43 70.2386 26.046L69.8426 24.714C69.3746 25.134 68.9186 25.506 68.4746 25.83C68.0306 26.142 67.5686 26.406 67.0886 26.622C66.6086 26.838 66.0926 27 65.5406 27.108C65.0006 27.228 64.4006 27.288 63.7406 27.288C62.9606 27.288 62.2406 27.186 61.5806 26.982C60.9206 26.766 60.3506 26.448 59.8706 26.028C59.3906 25.608 59.0186 25.086 58.7546 24.462C58.4906 23.838 58.3586 23.112 58.3586 22.284C58.3586 21.816 58.4366 21.354 58.5926 20.898C58.7486 20.43 59.0006 19.986 59.3486 19.566C59.7086 19.146 60.1706 18.75 60.7346 18.378C61.2986 18.006 61.9886 17.682 62.8046 17.406C63.6326 17.13 64.5926 16.908 65.6846 16.74C66.7766 16.56 68.0246 16.452 69.4286 16.416V15.336C69.4286 14.1 69.1646 13.188 68.6366 12.6C68.1086 12 67.3466 11.7 66.3506 11.7C65.6306 11.7 65.0306 11.784 64.5506 11.952C64.0826 12.12 63.6686 12.312 63.3086 12.528C62.9486 12.732 62.6186 12.918 62.3186 13.086C62.0306 13.254 61.7066 13.338 61.3466 13.338C61.0346 13.338 60.7706 13.26 60.5546 13.104C60.3386 12.936 60.1646 12.744 60.0326 12.528L59.2406 11.106ZM91.2198 10.368C91.2198 10.68 91.1658 10.986 91.0578 11.286C90.9498 11.586 90.8058 11.832 90.6258 12.024L81.8598 23.58H90.9498V27H76.6938V25.146C76.6938 24.942 76.7418 24.702 76.8378 24.426C76.9338 24.138 77.0778 23.868 77.2698 23.616L86.1258 11.934H77.2158V8.532H91.2198V10.368ZM99.7048 11.88H100.839C101.295 11.88 101.673 11.82 101.973 11.7C102.273 11.568 102.531 11.364 102.747 11.088L109.929 1.998C110.229 1.614 110.541 1.35 110.865 1.206C111.201 1.05 111.621 0.971998 112.125 0.971998H116.301L107.535 11.79C107.019 12.45 106.485 12.918 105.933 13.194C106.329 13.338 106.683 13.542 106.995 13.806C107.319 14.058 107.625 14.394 107.913 14.814L116.949 27H112.683C112.107 27 111.675 26.922 111.387 26.766C111.111 26.598 110.877 26.358 110.685 26.046L103.323 16.434C103.095 16.11 102.831 15.882 102.531 15.75C102.231 15.618 101.799 15.552 101.235 15.552H99.7048V27H94.8628V0.971998H99.7048V11.88ZM123.287 10.512C124.007 9.84 124.799 9.294 125.663 8.874C126.527 8.454 127.541 8.244 128.705 8.244C129.713 8.244 130.607 8.418 131.387 8.766C132.167 9.102 132.815 9.582 133.331 10.206C133.859 10.818 134.255 11.556 134.519 12.42C134.795 13.272 134.933 14.214 134.933 15.246V27H130.487V15.246C130.487 14.118 130.229 13.248 129.713 12.636C129.197 12.012 128.411 11.7 127.355 11.7C126.587 11.7 125.867 11.874 125.195 12.222C124.523 12.57 123.887 13.044 123.287 13.644V27H118.841V0.251999H123.287V10.512ZM148.917 19.116C147.633 19.176 146.553 19.29 145.677 19.458C144.801 19.614 144.099 19.818 143.571 20.07C143.043 20.322 142.665 20.616 142.437 20.952C142.209 21.288 142.095 21.654 142.095 22.05C142.095 22.83 142.323 23.388 142.779 23.724C143.247 24.06 143.853 24.228 144.597 24.228C145.509 24.228 146.295 24.066 146.955 23.742C147.627 23.406 148.281 22.902 148.917 22.23V19.116ZM138.729 11.106C140.853 9.162 143.409 8.19 146.397 8.19C147.477 8.19 148.443 8.37 149.295 8.73C150.147 9.078 150.867 9.57 151.455 10.206C152.043 10.83 152.487 11.58 152.787 12.456C153.099 13.332 153.255 14.292 153.255 15.336V27H151.239C150.819 27 150.495 26.94 150.267 26.82C150.039 26.688 149.859 26.43 149.727 26.046L149.331 24.714C148.863 25.134 148.407 25.506 147.963 25.83C147.519 26.142 147.057 26.406 146.577 26.622C146.097 26.838 145.581 27 145.029 27.108C144.489 27.228 143.889 27.288 143.229 27.288C142.449 27.288 141.729 27.186 141.069 26.982C140.409 26.766 139.839 26.448 139.359 26.028C138.879 25.608 138.507 25.086 138.243 24.462C137.979 23.838 137.847 23.112 137.847 22.284C137.847 21.816 137.925 21.354 138.081 20.898C138.237 20.43 138.489 19.986 138.837 19.566C139.197 19.146 139.659 18.75 140.223 18.378C140.787 18.006 141.477 17.682 142.293 17.406C143.121 17.13 144.081 16.908 145.173 16.74C146.265 16.56 147.513 16.452 148.917 16.416V15.336C148.917 14.1 148.653 13.188 148.125 12.6C147.597 12 146.835 11.7 145.839 11.7C145.119 11.7 144.519 11.784 144.039 11.952C143.571 12.12 143.157 12.312 142.797 12.528C142.437 12.732 142.107 12.918 141.807 13.086C141.519 13.254 141.195 13.338 140.835 13.338C140.523 13.338 140.259 13.26 140.043 13.104C139.827 12.936 139.653 12.744 139.521 12.528L138.729 11.106ZM163.352 27.288C161.744 27.288 160.508 26.838 159.644 25.938C158.792 25.026 158.366 23.772 158.366 22.176V11.862H156.476C156.236 11.862 156.032 11.784 155.864 11.628C155.696 11.472 155.612 11.238 155.612 10.926V9.162L158.582 8.676L159.518 3.636C159.578 3.396 159.692 3.21 159.86 3.078C160.028 2.946 160.244 2.88 160.508 2.88H162.812V8.694H167.744V11.862H162.812V21.87C162.812 22.446 162.95 22.896 163.226 23.22C163.514 23.544 163.904 23.706 164.396 23.706C164.672 23.706 164.9 23.676 165.08 23.616C165.272 23.544 165.434 23.472 165.566 23.4C165.71 23.328 165.836 23.262 165.944 23.202C166.052 23.13 166.16 23.094 166.268 23.094C166.4 23.094 166.508 23.13 166.592 23.202C166.676 23.262 166.766 23.358 166.862 23.49L168.194 25.65C167.546 26.19 166.802 26.598 165.962 26.874C165.122 27.15 164.252 27.288 163.352 27.288ZM180.347 19.116C179.063 19.176 177.983 19.29 177.107 19.458C176.231 19.614 175.529 19.818 175.001 20.07C174.473 20.322 174.095 20.616 173.867 20.952C173.639 21.288 173.525 21.654 173.525 22.05C173.525 22.83 173.753 23.388 174.209 23.724C174.677 24.06 175.283 24.228 176.027 24.228C176.939 24.228 177.725 24.066 178.385 23.742C179.057 23.406 179.711 22.902 180.347 22.23V19.116ZM170.159 11.106C172.283 9.162 174.839 8.19 177.827 8.19C178.907 8.19 179.873 8.37 180.725 8.73C181.577 9.078 182.297 9.57 182.885 10.206C183.473 10.83 183.917 11.58 184.217 12.456C184.529 13.332 184.685 14.292 184.685 15.336V27H182.669C182.249 27 181.925 26.94 181.697 26.82C181.469 26.688 181.289 26.43 181.157 26.046L180.761 24.714C180.293 25.134 179.837 25.506 179.393 25.83C178.949 26.142 178.487 26.406 178.007 26.622C177.527 26.838 177.011 27 176.459 27.108C175.919 27.228 175.319 27.288 174.659 27.288C173.879 27.288 173.159 27.186 172.499 26.982C171.839 26.766 171.269 26.448 170.789 26.028C170.309 25.608 169.937 25.086 169.673 24.462C169.409 23.838 169.277 23.112 169.277 22.284C169.277 21.816 169.355 21.354 169.511 20.898C169.667 20.43 169.919 19.986 170.267 19.566C170.627 19.146 171.089 18.75 171.653 18.378C172.217 18.006 172.907 17.682 173.723 17.406C174.551 17.13 175.511 16.908 176.603 16.74C177.695 16.56 178.943 16.452 180.347 16.416V15.336C180.347 14.1 180.083 13.188 179.555 12.6C179.027 12 178.265 11.7 177.269 11.7C176.549 11.7 175.949 11.784 175.469 11.952C175.001 12.12 174.587 12.312 174.227 12.528C173.867 12.732 173.537 12.918 173.237 13.086C172.949 13.254 172.625 13.338 172.265 13.338C171.953 13.338 171.689 13.26 171.473 13.104C171.257 12.936 171.083 12.744 170.951 12.528L170.159 11.106Z" fill="white"/>
</svg>
