<svg width="60" height="60" viewBox="0 0 60 60" fill="none" xmlns="http://www.w3.org/2000/svg">
<g clip-path="url(#clip0_40_987)">
<path d="M42.1405 42.1405C38.8554 45.4315 34.3963 47.2809 29.7463 47.2809C25.0962 47.2809 20.6371 45.4315 17.352 42.1405L17.1041 41.8926C12.2381 36.8239 10.8673 29.3401 13.6206 22.8757C16.374 16.4113 22.7199 12.2143 29.7463 12.2108C36.8389 12.2079 43.2343 16.4796 45.948 23.0326C48.6617 29.5856 47.1587 37.1281 42.1405 42.1405ZM31.4939 31.4938L37.9141 31.4938L37.9141 27.9986H31.4939L31.4939 21.5784L27.9987 21.5784L27.9987 27.9986L21.5785 27.9986V31.4938L27.9987 31.4938L27.9987 37.914L31.4939 37.914L31.4951 31.495L31.4939 31.4938Z" fill="white"/>
</g>
<defs>
<clipPath id="clip0_40_987">
<rect width="42.0675" height="42.0675" fill="white" transform="translate(0 29.7462) rotate(-45)"/>
</clipPath>
</defs>
</svg>
