<svg width="27" height="27" viewBox="0 0 27 27" fill="none" xmlns="http://www.w3.org/2000/svg">
<path d="M1.6875 4.21875C1.6875 3.54742 1.95418 2.90359 2.42889 2.42889C2.90359 1.95418 3.54742 1.6875 4.21875 1.6875H9.28125C9.95258 1.6875 10.5964 1.95418 11.0711 2.42889C11.5458 2.90359 11.8125 3.54742 11.8125 4.21875V9.28125C11.8125 9.95258 11.5458 10.5964 11.0711 11.0711C10.5964 11.5458 9.95258 11.8125 9.28125 11.8125H4.21875C3.54742 11.8125 2.90359 11.5458 2.42889 11.0711C1.95418 10.5964 1.6875 9.95258 1.6875 9.28125V4.21875ZM15.1875 4.21875C15.1875 3.54742 15.4542 2.90359 15.9289 2.42889C16.4036 1.95418 17.0474 1.6875 17.7188 1.6875H22.7812C23.4526 1.6875 24.0964 1.95418 24.5711 2.42889C25.0458 2.90359 25.3125 3.54742 25.3125 4.21875V9.28125C25.3125 9.95258 25.0458 10.5964 24.5711 11.0711C24.0964 11.5458 23.4526 11.8125 22.7812 11.8125H17.7188C17.0474 11.8125 16.4036 11.5458 15.9289 11.0711C15.4542 10.5964 15.1875 9.95258 15.1875 9.28125V4.21875ZM1.6875 17.7188C1.6875 17.0474 1.95418 16.4036 2.42889 15.9289C2.90359 15.4542 3.54742 15.1875 4.21875 15.1875H9.28125C9.95258 15.1875 10.5964 15.4542 11.0711 15.9289C11.5458 16.4036 11.8125 17.0474 11.8125 17.7188V22.7812C11.8125 23.4526 11.5458 24.0964 11.0711 24.5711C10.5964 25.0458 9.95258 25.3125 9.28125 25.3125H4.21875C3.54742 25.3125 2.90359 25.0458 2.42889 24.5711C1.95418 24.0964 1.6875 23.4526 1.6875 22.7812V17.7188ZM15.1875 17.7188C15.1875 17.0474 15.4542 16.4036 15.9289 15.9289C16.4036 15.4542 17.0474 15.1875 17.7188 15.1875H22.7812C23.4526 15.1875 24.0964 15.4542 24.5711 15.9289C25.0458 16.4036 25.3125 17.0474 25.3125 17.7188V22.7812C25.3125 23.4526 25.0458 24.0964 24.5711 24.5711C24.0964 25.0458 23.4526 25.3125 22.7812 25.3125H17.7188C17.0474 25.3125 16.4036 25.0458 15.9289 24.5711C15.4542 24.0964 15.1875 23.4526 15.1875 22.7812V17.7188Z" fill="white"/>
</svg>
