<svg width="173" height="173" viewBox="0 0 173 173" fill="none" xmlns="http://www.w3.org/2000/svg">
<path d="M21.625 21.625H43.25V43.25H21.625V21.625Z" fill="#232323"/>
<path d="M64.875 0V64.875H0V0H64.875ZM54.0625 10.8125H10.8125V54.0625H54.0625V10.8125ZM43.25 129.75H21.625V151.375H43.25V129.75Z" fill="#232323"/>
<path d="M64.875 108.125V173H0V108.125H64.875ZM10.8125 118.938V162.188H54.0625V118.938H10.8125ZM129.75 21.625H151.375V43.25H129.75V21.625Z" fill="#232323"/>
<path d="M108.125 0V64.875H173V0H108.125ZM162.188 10.8125V54.0625H118.938V10.8125H162.188ZM86.5 10.8125V0H97.3125V21.625H86.5V43.25H75.6875V10.8125H86.5ZM86.5 64.875V43.25H97.3125V64.875H86.5ZM64.875 86.5V75.6875H75.6875V64.875H86.5V86.5H97.3125V75.6875H151.375V86.5H108.125V97.3125H75.6875V86.5H64.875ZM64.875 86.5V97.3125H21.625V86.5H10.8125V97.3125H0V75.6875H32.4375V86.5H64.875ZM173 97.3125H162.188V75.6875H173V97.3125ZM162.188 97.3125H151.375V118.938H173V108.125H162.188V97.3125ZM118.938 97.3125H140.562V108.125H129.75V118.938H118.938V97.3125ZM140.562 129.75V118.938H129.75V129.75H118.938V140.562H97.3125V151.375H129.75V129.75H140.562ZM140.562 129.75H173V140.562H151.375V151.375H140.562V129.75ZM97.3125 118.938V129.75H108.125V108.125H75.6875V118.938H97.3125Z" fill="#232323"/>
<path d="M75.6875 129.75H86.5V162.188H129.75V173H75.6875V129.75ZM173 151.375V173H140.562V162.188H162.188V151.375H173Z" fill="#232323"/>
</svg>
