<svg width="40" height="40" viewBox="0 0 40 40" fill="none" xmlns="http://www.w3.org/2000/svg">
<path d="M20.0333 3.33331C29.5 3.33331 36.6667 11.095 36.6667 19.9749C36.6667 30.2737 28.2667 36.6666 20 36.6666C17.2667 36.6666 14.2333 35.9322 11.8 34.4967C10.95 33.9793 10.2333 33.5954 9.31666 33.8958L5.95 34.8973C5.1 35.1644 4.33333 34.4967 4.58333 33.5954L5.7 29.8564C5.88333 29.339 5.85 28.7882 5.58333 28.3542C4.14999 25.7169 3.33333 22.8292 3.33333 20.025C3.33333 11.2452 10.35 3.33331 20.0333 3.33331ZM27.65 17.9052C26.4667 17.9052 25.5167 18.8566 25.5167 20.0417C25.5167 21.2101 26.4667 22.1782 27.65 22.1782C28.8333 22.1782 29.7833 21.2101 29.7833 20.0417C29.7833 18.8566 28.8333 17.9052 27.65 17.9052ZM19.9667 17.9052C18.8 17.8885 17.8333 18.8566 17.8333 20.025C17.8333 21.2101 18.7833 22.1616 19.9667 22.1782C21.15 22.1782 22.1 21.2101 22.1 20.0417C22.1 18.8566 21.15 17.9052 19.9667 17.9052ZM12.2833 17.9052C11.1 17.9052 10.15 18.8566 10.15 20.0417C10.15 21.2101 11.1167 22.1782 12.2833 22.1782C13.4667 22.1616 14.4167 21.2101 14.4167 20.0417C14.4167 18.8566 13.4667 17.9052 12.2833 17.9052Z" fill="black" fill-opacity="0.62"/>
</svg>
