<svg width="65" height="65" viewBox="0 0 65 65" fill="none" xmlns="http://www.w3.org/2000/svg">
<path d="M52 19.5H11.375V17.875L47.125 15.015V17.875H52V13C52 9.42499 49.1042 6.91599 45.5682 7.41974L12.935 12.0802C9.39575 12.5872 6.5 15.925 6.5 19.5V52C6.5 53.7239 7.18482 55.3772 8.40381 56.5962C9.62279 57.8152 11.2761 58.5 13 58.5H52C53.7239 58.5 55.3772 57.8152 56.5962 56.5962C57.8152 55.3772 58.5 53.7239 58.5 52V26C58.5 24.2761 57.8152 22.6228 56.5962 21.4038C55.3772 20.1848 53.7239 19.5 52 19.5ZM47.125 42.2695C46.4846 42.2693 45.8505 42.1429 45.2589 41.8977C44.6673 41.6524 44.1299 41.293 43.6772 40.84C43.2245 40.387 42.8655 39.8493 42.6206 39.2576C42.3757 38.6658 42.2498 38.0316 42.25 37.3912C42.2502 36.7508 42.3766 36.1167 42.6218 35.5252C42.8671 34.9336 43.2265 34.3961 43.6795 33.9434C44.1325 33.4907 44.6702 33.1317 45.2619 32.8868C45.8537 32.6419 46.4878 32.516 47.1283 32.5162C48.4216 32.5167 49.6618 33.0309 50.5761 33.9457C51.4903 34.8606 52.0037 36.1011 52.0033 37.3945C52.0028 38.6878 51.4886 39.9281 50.5738 40.8423C49.6589 41.7565 48.4184 42.2699 47.125 42.2695Z" fill="white"/>
</svg>
