<svg width="21" height="21" viewBox="0 0 21 21" fill="none" xmlns="http://www.w3.org/2000/svg">
<path d="M6.48594 10.5C5.30469 10.5391 4.33854 11.0391 3.5875 12H2.12188C1.52396 12 1.02083 11.8418 0.6125 11.5254C0.204167 11.209 0 10.7461 0 10.1367C0 7.37891 0.452083 6 1.35625 6C1.4 6 1.55859 6.08203 1.83203 6.24609C2.10547 6.41016 2.46094 6.57617 2.89844 6.74414C3.33594 6.91211 3.76979 6.99609 4.2 6.99609C4.68854 6.99609 5.17344 6.90625 5.65469 6.72656C5.61823 7.01562 5.6 7.27344 5.6 7.5C5.6 8.58594 5.89531 9.58594 6.48594 10.5ZM18.2 17.9648C18.2 18.9023 17.9339 19.6426 17.4016 20.1855C16.8693 20.7285 16.162 21 15.2797 21H5.72031C4.83802 21 4.13073 20.7285 3.59844 20.1855C3.06615 19.6426 2.8 18.9023 2.8 17.9648C2.8 17.5508 2.81276 17.1465 2.83828 16.752C2.8638 16.3574 2.91484 15.9316 2.99141 15.4746C3.06797 15.0176 3.16458 14.5938 3.28125 14.2031C3.39792 13.8125 3.55469 13.4316 3.75156 13.0605C3.94844 12.6895 4.17448 12.373 4.42969 12.1113C4.6849 11.8496 4.99661 11.6406 5.36484 11.4844C5.73307 11.3281 6.13958 11.25 6.58437 11.25C6.65729 11.25 6.81406 11.334 7.05469 11.502C7.29531 11.6699 7.56146 11.8574 7.85313 12.0645C8.14479 12.2715 8.5349 12.459 9.02344 12.627C9.51198 12.7949 10.0042 12.8789 10.5 12.8789C10.9958 12.8789 11.488 12.7949 11.9766 12.627C12.4651 12.459 12.8552 12.2715 13.1469 12.0645C13.4385 11.8574 13.7047 11.6699 13.9453 11.502C14.1859 11.334 14.3427 11.25 14.4156 11.25C14.8604 11.25 15.2669 11.3281 15.6352 11.4844C16.0034 11.6406 16.3151 11.8496 16.5703 12.1113C16.8255 12.373 17.0516 12.6895 17.2484 13.0605C17.4453 13.4316 17.6021 13.8125 17.7188 14.2031C17.8354 14.5938 17.932 15.0176 18.0086 15.4746C18.0852 15.9316 18.1362 16.3574 18.1617 16.752C18.1872 17.1465 18.2 17.5508 18.2 17.9648ZM7 3C7 3.82812 6.72656 4.53516 6.17969 5.12109C5.63281 5.70703 4.97292 6 4.2 6C3.42708 6 2.76719 5.70703 2.22031 5.12109C1.67344 4.53516 1.4 3.82812 1.4 3C1.4 2.17188 1.67344 1.46484 2.22031 0.878906C2.76719 0.292969 3.42708 0 4.2 0C4.97292 0 5.63281 0.292969 6.17969 0.878906C6.72656 1.46484 7 2.17188 7 3ZM14.7 7.5C14.7 8.74219 14.2898 9.80273 13.4695 10.6816C12.6492 11.5605 11.6594 12 10.5 12C9.34062 12 8.35078 11.5605 7.53047 10.6816C6.71016 9.80273 6.3 8.74219 6.3 7.5C6.3 6.25781 6.71016 5.19727 7.53047 4.31836C8.35078 3.43945 9.34062 3 10.5 3C11.6594 3 12.6492 3.43945 13.4695 4.31836C14.2898 5.19727 14.7 6.25781 14.7 7.5ZM21 10.1367C21 10.7461 20.7958 11.209 20.3875 11.5254C19.9792 11.8418 19.476 12 18.8781 12H17.4125C16.6615 11.0391 15.6953 10.5391 14.5141 10.5C15.1047 9.58594 15.4 8.58594 15.4 7.5C15.4 7.27344 15.3818 7.01562 15.3453 6.72656C15.8266 6.90625 16.3115 6.99609 16.8 6.99609C17.2302 6.99609 17.6641 6.91211 18.1016 6.74414C18.5391 6.57617 18.8945 6.41016 19.168 6.24609C19.4414 6.08203 19.6 6 19.6437 6C20.5479 6 21 7.37891 21 10.1367ZM19.6 3C19.6 3.82812 19.3266 4.53516 18.7797 5.12109C18.2328 5.70703 17.5729 6 16.8 6C16.0271 6 15.3672 5.70703 14.8203 5.12109C14.2734 4.53516 14 3.82812 14 3C14 2.17188 14.2734 1.46484 14.8203 0.878906C15.3672 0.292969 16.0271 0 16.8 0C17.5729 0 18.2328 0.292969 18.7797 0.878906C19.3266 1.46484 19.6 2.17188 19.6 3Z" fill="black" fill-opacity="0.85"/>
</svg>
