<svg width="27" height="27" viewBox="0 0 27 27" fill="none" xmlns="http://www.w3.org/2000/svg">
<path d="M12.3053 2.88901C13.0106 2.34901 13.9911 2.34901 14.6964 2.88901L23.0698 9.2897C24.1363 10.1048 23.5643 11.8058 22.2244 11.8125H4.77562C3.43744 11.8058 2.86369 10.1048 3.93187 9.2897L12.3053 2.88901ZM13.5 8.85938C13.8357 8.85938 14.1576 8.72604 14.3949 8.48869C14.6323 8.25134 14.7656 7.92942 14.7656 7.59376C14.7656 7.25809 14.6323 6.93618 14.3949 6.69883C14.1576 6.46148 13.8357 6.32813 13.5 6.32813C13.1643 6.32813 12.8424 6.46148 12.6051 6.69883C12.3677 6.93618 12.2344 7.25809 12.2344 7.59376C12.2344 7.92942 12.3677 8.25134 12.6051 8.48869C12.8424 8.72604 13.1643 8.85938 13.5 8.85938ZM5.90625 13.5V18.5625H8.4375V13.5H5.90625ZM10.125 13.5V18.5625H12.6562V13.5H10.125ZM14.3438 13.5V18.5625H16.875V13.5H14.3438ZM18.5625 13.5V18.5625H21.0938V13.5H18.5625ZM3.375 22.3594C3.375 21.195 4.32 20.25 5.48438 20.25H21.5156C22.68 20.25 23.625 21.195 23.625 22.3594V22.7813C23.625 23.005 23.5361 23.2196 23.3779 23.3779C23.2196 23.5361 23.005 23.625 22.7812 23.625H4.21875C3.99497 23.625 3.78036 23.5361 3.62213 23.3779C3.4639 23.2196 3.375 23.005 3.375 22.7813V22.3594Z" fill="white"/>
</svg>
