<svg width="27" height="27" viewBox="0 0 27 27" fill="none" xmlns="http://www.w3.org/2000/svg">
<path d="M10.125 1.6875H1.6875C0.759375 1.6875 0 2.44687 0 3.375V11.8125C0 12.7406 0.759375 13.5 1.6875 13.5H10.125C11.0531 13.5 11.8125 12.7406 11.8125 11.8125V3.375C11.8125 2.44687 11.0531 1.6875 10.125 1.6875ZM10.125 8.4375H1.6875V6.75H10.125V8.4375ZM23.625 1.6875H15.1875C14.2594 1.6875 13.5 2.44687 13.5 3.375V25.3125C13.5 26.2406 14.2594 27 15.1875 27H23.625C24.5531 27 25.3125 26.2406 25.3125 25.3125V3.375C25.3125 2.44687 24.5531 1.6875 23.625 1.6875ZM23.625 16.875H15.1875V15.1875H23.625V16.875ZM23.625 11.8125H15.1875V10.125H23.625V11.8125ZM10.125 15.1875H1.6875C0.759375 15.1875 0 15.9469 0 16.875V25.3125C0 26.2406 0.759375 27 1.6875 27H10.125C11.0531 27 11.8125 26.2406 11.8125 25.3125V16.875C11.8125 15.9469 11.0531 15.1875 10.125 15.1875ZM10.125 21.9375H6.75V25.3125H5.0625V21.9375H1.6875V20.25H5.0625V16.875H6.75V20.25H10.125V21.9375Z" fill="white"/>
</svg>
