<svg width="24" height="32" viewBox="0 0 24 32" fill="none" xmlns="http://www.w3.org/2000/svg">
<path d="M19.6084 8.39084C19.0876 7.87 18.2439 7.87 17.7231 8.39084L4.3906 21.7245C3.8698 22.2454 3.8698 23.0891 4.3906 23.61C4.65225 23.8708 4.99306 24 5.33429 24C5.67552 24 6.01674 23.8698 6.27673 23.6094L19.6092 10.2757C20.1292 9.7538 20.1292 8.91169 19.6084 8.39084ZM6.66753 13.3331C8.13827 13.3331 9.33403 12.1364 9.33403 10.6663C9.33403 9.19628 8.13827 8 6.66753 8C5.1968 8 4.00104 9.1967 4.00104 10.6663C4.00104 12.1359 5.1968 13.3331 6.66753 13.3331ZM17.3335 18.6665C15.8628 18.6665 14.667 19.8632 14.667 21.3333C14.667 22.8033 15.8628 24 17.3335 24C18.8042 24 20 22.8033 20 21.3333C20 19.8632 18.8042 18.6665 17.3335 18.6665Z" fill="white"/>
</svg>
