<svg width="27" height="27" viewBox="0 0 27 27" fill="none" xmlns="http://www.w3.org/2000/svg">
<path d="M14.3068 2.25012C15.1575 2.25012 15.9278 2.72262 16.3532 3.42012C16.5602 3.75762 16.6981 4.17387 16.6636 4.61262C16.6407 4.95012 16.7441 5.28762 16.9281 5.60262C17.5144 6.55887 18.8136 6.91887 19.8253 6.37887C20.9635 5.72637 22.4007 6.12012 23.056 7.23387L23.8263 8.56137C24.4931 9.67512 24.1252 11.1039 22.9755 11.7451C21.9983 12.3189 21.6534 13.5901 22.2397 14.5576C22.4237 14.8614 22.6306 15.1201 22.9525 15.2776C23.3549 15.4914 23.6653 15.8289 23.8838 16.1664C24.3092 16.8639 24.2747 17.7189 23.8608 18.4726L23.056 19.8226C22.6306 20.5426 21.8373 20.9926 21.021 20.9926C20.6186 20.9926 20.1702 20.8801 19.8023 20.6551C19.5034 20.4639 19.1585 20.3964 18.7906 20.3964C17.6524 20.3964 16.6981 21.3301 16.6636 22.4439C16.6636 23.7376 15.6059 24.7501 14.2838 24.7501H12.7202C11.3865 24.7501 10.3288 23.7376 10.3288 22.4439C10.3058 21.3301 9.35154 20.3964 8.21334 20.3964C7.83393 20.3964 7.48902 20.4639 7.2016 20.6551C6.83369 20.8801 6.37381 20.9926 5.98291 20.9926C5.15513 20.9926 4.36183 20.5426 3.93644 19.8226L3.14315 18.4726C2.71776 17.7414 2.69477 16.8639 3.12016 16.1664C3.30411 15.8289 3.64902 15.4914 4.03992 15.2776C4.36183 15.1201 4.56878 14.8614 4.76423 14.5576C5.33908 13.5901 4.99417 12.3189 4.01692 11.7451C2.87872 11.1039 2.51081 9.67512 3.16614 8.56137L3.93644 7.23387C4.60327 6.12012 6.0289 5.72637 7.1786 6.37887C8.17885 6.91887 9.47801 6.55887 10.0644 5.60262C10.2483 5.28762 10.3518 4.95012 10.3288 4.61262C10.3058 4.17387 10.4323 3.75762 10.6507 3.42012C11.0761 2.72262 11.8464 2.27262 12.6857 2.25012H14.3068ZM13.5135 10.3276C11.7084 10.3276 10.2483 11.7451 10.2483 13.5114C10.2483 15.2776 11.7084 16.6839 13.5135 16.6839C15.3185 16.6839 16.7441 15.2776 16.7441 13.5114C16.7441 11.7451 15.3185 10.3276 13.5135 10.3276Z" fill="white"/>
</svg>
