<svg width="65" height="65" viewBox="0 0 65 65" fill="none" xmlns="http://www.w3.org/2000/svg">
<path d="M65 48.3914L64.2915 47.9754C64.2373 47.944 58.8239 44.7319 57.4784 40.8341L57.1783 39.9707L56.6237 40.6954C56.6063 40.7182 55.8372 41.6693 53.6846 42.7852C52.091 33.7144 46.67 22.8854 39.546 18.2682C41.5827 18.4329 43.6258 18.2639 45.5975 17.5468C46.7848 17.1156 46.2724 15.1807 45.0742 15.6184C43.4579 16.2067 41.8383 16.367 40.222 16.2847C44.1902 12.6479 47.3059 7.07417 47.3059 2.99867C47.3059 2.01933 47.3059 0.196083 45.8542 0.196083C45.2714 0.196083 44.8002 0.560083 44.1491 1.06275C43.1502 1.833 41.6423 2.99867 39.4268 2.99867C38.5829 2.99867 37.0381 2.10817 35.7966 1.39317C34.2962 0.52975 33.3374 0 32.5314 0C31.1967 0 29.2348 1.079 27.5037 2.03125C26.7995 2.418 25.8364 2.94883 25.6371 2.99975C23.1281 2.99975 21.671 1.84275 20.7047 1.07683C20.1413 0.628333 19.7329 0.303333 19.188 0.303333C17.7602 0.303333 17.7602 2.01608 17.7602 3.99967C17.7602 7.82817 20.6765 12.8819 24.4952 16.2782C22.0892 16.4504 19.7167 17.1773 18.0494 18.7926C17.1286 19.6831 18.5239 21.0957 19.4415 20.2074C20.8271 18.8641 22.6438 18.2888 24.5873 18.1772C24.6426 18.3755 24.7098 18.5705 24.7921 18.7623C16.6498 24.6133 10.8658 38.5071 10.8658 47.8866C10.8658 48.8117 10.9373 49.6492 11.0478 50.4378C8.94833 49.5051 8.18242 48.6872 8.16725 48.6687L7.60825 48.0242L7.33308 48.8367C6.1165 52.416 0.827667 55.5208 0.774583 55.5522L0 56.0018L0.787583 56.4276C1.06383 56.5771 1.33792 56.7082 1.61417 56.8501L1.11583 57.1957L1.37908 60.489L22.0198 65L29.8458 59.9939C30.6356 59.9982 31.4351 60.0004 32.2487 60.0004L41.3963 65L62.0761 58.5V55.0236L61.529 54.6953C61.802 54.522 62.075 54.3454 62.3469 54.1634L63.0717 53.6792L62.9124 53.6012L63.8343 53.3487L63.9903 49.7347L63.4573 49.3567C63.7412 49.1866 64.0239 49.0132 64.3077 48.8334L65 48.3914ZM19.7307 3.99967C19.7307 3.51867 19.7372 3.14383 19.747 2.85242C19.9128 2.98242 20.1056 3.12433 20.3114 3.27058C20.943 4.78292 22.1379 6.96042 24.1637 8.33192C26.6251 10.0002 26.2979 8.08275 27.6109 6.33208C28.9239 4.5825 29.8123 3.666 32.0114 8.16617C32.9702 10.1281 34.5681 4.64533 36.0869 3.84475C36.4888 4.06358 36.8897 4.26725 37.2829 4.44058C40.0064 8.86925 41.2685 7.488 43.6876 3.80683C44.3527 3.41683 44.8988 2.99867 45.3332 2.66392C45.3353 2.76467 45.3375 2.87625 45.3375 3.00083C45.3375 6.47833 42.4959 11.466 39.0163 14.7192C38.852 14.3017 38.6166 13.9158 38.3208 13.5785C36.9157 11.9871 34.7197 13.7518 33.6787 14.9099C31.8316 14.3162 28.8221 12.6815 26.8612 13.6175C26.3729 13.844 25.9244 14.148 25.5331 14.5177C22.3264 11.5949 19.7307 7.37533 19.7307 3.99967ZM37.2851 15.8882C36.7994 15.7852 36.3164 15.6696 35.8367 15.5415C36.4412 15.0204 36.9958 14.8384 37.2288 15.613C37.2537 15.6975 37.2688 15.7939 37.2851 15.8882ZM29.0517 16.5609C28.6932 16.4927 28.3248 16.4309 27.9457 16.3822C27.6582 16.202 27.3767 16.0123 27.1017 15.8134C28.0919 15.1493 29.7992 15.5025 31.4307 16.0561C30.6258 16.1373 29.8317 16.3128 29.0517 16.5609ZM29.5436 19.4209C28.9369 19.5726 28.2761 19.5119 27.7052 19.2844C27.937 19.162 28.171 19.0558 28.405 18.9486C28.7842 19.1317 29.1633 19.2844 29.5436 19.4209ZM9.50517 58.9106C6.92129 58.1623 4.4141 57.1709 2.01717 55.9498C3.48725 54.9835 6.68958 52.6468 7.99175 49.8388C8.88442 50.5397 10.9449 51.818 14.9576 52.7995C14.8893 52.91 14.8059 53.0281 14.7257 53.144C11.3003 52.247 9.35242 51.1127 9.321 51.0933L8.84867 50.8116L8.62225 51.3175C8.32433 51.9805 7.62558 52.0802 7.23667 52.0802C7.12833 52.0802 7.05575 52.0726 7.046 52.0715L6.65925 52.0152L6.51842 52.3857C6.23025 53.1418 5.04725 54.1298 4.61392 54.4472L3.89025 54.9781L4.71792 55.3172C5.02558 55.4428 5.109 55.5588 5.11333 55.5891C5.12417 55.6638 4.99308 55.861 4.85333 55.9747L4.22283 56.4828L4.95625 56.8219C6.45883 57.5153 8.16075 58.0894 9.86267 58.5628C9.72725 58.6961 9.61025 58.8098 9.50517 58.9106ZM18.2412 54.8741C19.7557 55.0864 21.4337 55.2207 23.2667 55.2207C23.6481 55.2207 24.0359 55.2143 24.4303 55.2023C24.4565 55.2841 24.4941 55.3617 24.5418 55.4331C24.6382 55.5793 24.7682 55.7007 24.9329 55.7949L22.1682 58.1577C22.1156 58.1554 22.0628 58.1543 22.0101 58.1544C20.7783 58.1544 19.8597 58.6072 19.4187 59.4132C17.7482 59.2002 16.0854 58.9303 14.4332 58.604C15.7614 57.4222 17.0321 56.1774 18.2412 54.8741ZM5.94642 56.1708C6.05475 55.9661 6.12517 55.718 6.08725 55.4472C6.05124 55.2028 5.9341 54.9777 5.75467 54.808C6.24108 54.3909 6.91167 53.7474 7.28 53.0812C8.11742 53.0693 8.80858 52.7518 9.24408 52.1907C9.9775 52.5742 11.6296 53.3488 14.0703 54.0204C13.0726 55.2717 11.7282 56.6908 10.6827 57.746C9.05342 57.3148 7.41217 56.7948 5.94642 56.1708ZM21.385 60.7306L21.1629 60.7317C20.2302 60.7317 17.1394 60.6558 13.0563 59.8054C13.1993 59.6841 13.3477 59.5595 13.4853 59.4403C16.7982 60.1326 19.4697 60.4294 19.6701 60.4522L20.0666 60.4944L20.189 60.1098C20.4566 59.28 21.4435 59.1576 22.009 59.1576C22.1639 59.1576 22.2668 59.1673 22.2788 59.1684L22.4889 59.1912L27.2913 55.0875L26.0076 55.0452C25.5786 55.0301 25.3977 54.9337 25.3533 54.8676L25.6252 54.1558L24.8733 54.1872C24.3252 54.2111 23.79 54.223 23.2667 54.223C21.7544 54.223 20.3504 54.1233 19.0537 53.9662L19.3548 53.6109C21.9722 53.9608 25.1062 54.1764 28.8903 54.1493C27.9868 55.4168 25.7335 58.1111 21.385 60.7306ZM32.2443 56.0235V58.0006C31.6279 58.0006 31.0278 57.9984 30.4406 57.9941L30.264 55.7689L28.7972 55.8881C29.7852 54.7203 30.2066 53.9413 30.2445 53.8709L30.6421 53.1191L29.8025 53.1342C21.7663 53.2816 16.5252 52.3239 13.2167 51.2601C12.9751 50.2829 12.8353 49.1779 12.8353 47.8877C12.8353 39.0877 18.4589 25.7866 25.9252 20.3959C27.248 21.6753 29.2543 22.2354 31.161 20.9907C31.5792 20.7177 31.9432 20.3602 32.2844 19.9799C32.3657 19.9821 32.4491 20.0005 32.5314 20.0005C32.8044 20.0005 33.0817 19.9777 33.358 19.9431C33.7079 20.0828 34.0502 20.2237 34.3677 20.3634C35.8876 21.0329 37.1854 20.6169 38.0716 19.6939C44.9107 23.8323 50.3902 34.7793 51.8321 43.628C48.7056 44.8782 43.7461 46.098 36.1346 46.3125C37.6361 45.4545 38.7628 44.0115 38.3576 42.1157C37.9318 40.1115 36.257 39.5482 34.5226 39.4561C34.5182 38.5147 34.5182 37.5754 34.5247 36.634C35.0567 36.8691 35.5669 37.1399 36.0306 37.4292C36.8496 37.9437 37.5906 36.6102 36.777 36.0956C36.0716 35.6521 35.3186 35.2891 34.5323 35.0133C34.5432 33.9235 34.5486 32.8358 34.5486 31.7482C34.5497 30.7515 33.0687 30.7515 33.0687 31.7482C33.0687 32.7047 33.0623 33.6602 33.0536 34.6147C32.2653 34.4773 31.4605 34.4638 30.6681 34.5746C30.5392 33.8575 30.3831 33.1456 30.2001 32.4404C29.9552 31.4806 28.5252 31.8868 28.7733 32.8499C28.9553 33.5422 29.1038 34.2312 29.2262 34.9299C29.1633 34.9537 29.0951 34.9657 29.0333 34.9938C27.027 35.7879 25.8028 37.8127 27.2708 39.7009C27.9543 40.5806 28.8481 40.9359 29.8263 41.054C29.8794 42.3573 29.913 43.6616 29.9509 44.9637C29.2955 44.538 28.6986 43.992 28.158 43.4146C27.4885 42.7082 26.4431 43.7992 27.1115 44.5044C28.0204 45.4718 28.9748 46.2031 30.0094 46.6711C30.056 47.7837 30.1221 48.8995 30.2304 50.0067C30.3258 50.9893 31.8078 50.9947 31.7113 50.0067C31.62 49.049 31.5525 48.0892 31.5087 47.1282C32.0721 47.2257 32.6636 47.2507 33.2919 47.1911C33.3623 48.2159 33.4447 49.2407 33.5617 50.2656C33.6288 50.8527 34.19 51.0835 34.6038 50.9643L34.5117 53.092C33.8596 53.1505 33.1944 53.2047 32.5011 53.2502L31.6756 53.3043L32.1154 54.015C32.1598 54.0865 32.6592 54.8762 33.774 56.0257L32.2443 56.0235ZM59.2063 48.893C57.8446 49.5332 56.1221 50.1204 54.3671 50.6328C53.2881 49.5181 51.9079 48.0307 50.8777 46.7112C53.1732 46.0157 54.4581 45.2985 55.0377 44.9117C55.4959 45.3158 56.1026 45.526 56.8208 45.5249C57.0592 45.5249 57.2704 45.5022 57.4329 45.4762C57.9529 46.15 58.7914 46.9278 59.3158 47.3926C59.0677 47.6472 58.9474 47.9288 58.9572 48.2332C58.9658 48.4932 59.0698 48.7142 59.2063 48.893ZM51.4551 52.4528C51.6761 52.6478 51.9047 52.8472 52.1376 53.0487C47.7458 54.2132 44.4773 54.34 43.7656 54.3519C39.2177 51.5775 36.8604 48.6417 35.9515 47.32C39.7572 47.2247 42.9033 46.8802 45.5271 46.4057C45.6338 46.5367 45.7418 46.6667 45.851 46.7957C43.7421 47.1241 41.6166 47.335 39.4842 47.4272L38.61 47.4641L39.091 48.1997C39.0899 48.2007 38.9924 48.3828 38.3467 48.5084L37.297 48.7132L42.458 52.8916L42.6985 52.8266C42.7039 52.8255 43.1589 52.7031 43.7092 52.7031C44.5033 52.7031 45.0461 52.9447 45.3191 53.417L45.4924 53.716L45.8293 53.6564C47.7164 53.3124 49.5925 52.911 51.4551 52.4528ZM36.1833 49.2689L34.9505 49.2017C34.8931 48.5864 34.8357 47.9711 34.7923 47.3558C35.009 47.7154 35.4532 48.3914 36.1833 49.2689ZM34.658 45.3028C34.5869 43.8445 34.544 42.385 34.5291 40.9251C34.7067 40.9316 34.8822 40.9478 35.0491 40.9717C36.9644 41.262 37.4649 43.3918 35.9699 44.59C35.5799 44.8988 35.1303 45.1252 34.658 45.3028ZM45.9669 52.6175C45.4816 52.0184 44.7092 51.7043 43.7103 51.7043C43.2933 51.7043 42.926 51.7606 42.6942 51.8061L39.4496 49.1768C39.7193 49.0219 39.9013 48.8258 40.001 48.5853C40.0255 48.5255 40.0444 48.4635 40.0573 48.4001C42.6292 48.2592 44.7958 48.0025 46.6278 47.6883C47.5161 48.6796 48.8215 50.0468 50.5527 51.636C48.4261 52.1419 46.6527 52.4886 45.9669 52.6175ZM33.0471 40.9641C33.0677 42.5338 33.1067 44.1079 33.1901 45.6766C33.0503 45.6982 32.9128 45.7253 32.7752 45.7394C32.3093 45.7925 31.8673 45.7535 31.447 45.6473C31.3939 44.1307 31.3592 42.6107 31.3018 41.093C31.8847 41.0659 32.4751 41.0085 33.0471 40.9641ZM31.2271 39.5937C31.1594 38.4033 31.0474 37.2159 30.8912 36.0338C31.6093 35.9351 32.3395 35.9722 33.0438 36.1432C33.0361 37.2508 33.0343 38.3583 33.0384 39.4658C32.5628 39.4918 32.1111 39.5373 31.7135 39.5731C31.5517 39.5857 31.3894 39.5926 31.2271 39.5937ZM29.7407 39.4041C29.6487 39.3792 29.5577 39.3597 29.4634 39.3283C29.0299 39.1813 28.6375 38.9337 28.3183 38.6057C27.3932 37.7422 28.6628 36.8951 29.4634 36.4932C29.5891 37.4573 29.6757 38.4302 29.7407 39.4041ZM41.6975 60.4922C36.9948 58.0894 34.4717 55.419 33.4696 54.1818C34.19 54.1277 34.8714 54.0627 35.5463 53.9944L43.2575 58.9994L60.1683 54.3541C51.4475 59.6104 42.8317 60.411 41.6975 60.4922ZM55.6638 51.9447C55.5252 51.8061 55.3594 51.6414 55.1633 51.4432C57.0873 50.8603 58.9485 50.1843 60.3362 49.4412L61.1802 48.9873L60.3243 48.5518C60.1326 48.4532 59.9452 48.2722 59.9419 48.204C59.9441 48.178 60.0199 48.0393 60.3482 47.8508L60.9743 47.4912L60.4175 47.0275C60.4002 47.0134 58.6636 45.5715 58.0537 44.6431L57.8522 44.3397L57.5066 44.4405C57.5033 44.4405 57.2065 44.5261 56.8208 44.5261C56.225 44.5272 55.7787 44.3322 55.4927 43.9487L55.1763 43.5294L54.7798 43.8707C54.7592 43.888 53.5318 44.8944 50.2396 45.8456C50.1312 45.6894 50.0268 45.5305 49.9265 45.3689C53.9186 44.1588 55.9585 42.6942 56.8425 41.8925C58.2617 44.9627 61.6406 47.4359 63.1074 48.4055C60.751 49.8315 58.2573 51.0172 55.6638 51.9447Z" fill="white"/>
</svg>
