<svg width="20" height="20" viewBox="0 0 20 20" fill="none" xmlns="http://www.w3.org/2000/svg">
<path d="M16.2761 8.18858C16.7217 8.18858 17.0833 8.54492 17.0833 8.98576C17.0833 12.5722 14.3338 15.5337 10.8077 15.9315V17.5362C10.8077 17.9763 10.446 18.3334 10.0004 18.3334C9.55399 18.3334 9.19315 17.9763 9.19315 17.5362V15.9315C5.66621 15.5337 2.91667 12.5722 2.91667 8.98576C2.91667 8.54492 3.27833 8.18858 3.72394 8.18858C4.16954 8.18858 4.5312 8.54492 4.5312 8.98576C4.5312 11.9632 6.98447 14.3858 10.0004 14.3858C13.0155 14.3858 15.4688 11.9632 15.4688 8.98576C15.4688 8.54492 15.8305 8.18858 16.2761 8.18858ZM10.1456 1.66675C11.8078 1.66675 13.2084 2.77004 13.6371 4.2759C13.696 4.48237 13.5402 4.68724 13.3238 4.68724H12.3801C12.0952 4.68724 11.8635 4.91523 11.8635 5.19663C11.8635 5.47963 12.0952 5.70762 12.3801 5.70762H13.2504C13.5386 5.70762 13.7727 5.938 13.7727 6.2226C13.7727 6.50719 13.5386 6.73757 13.2504 6.73757H12.3801C12.0952 6.73757 11.8635 6.96636 11.8635 7.24856C11.8635 7.52996 12.0952 7.75875 12.3801 7.75875H13.2504C13.5386 7.75875 13.7727 7.98913 13.7727 8.27452C13.7727 8.55831 13.5386 8.7887 13.2504 8.7887H12.3801C12.0952 8.7887 11.8635 9.01749 11.8635 9.29969C11.8635 9.58109 12.0952 9.80908 12.3801 9.80908H13.2778C13.499 9.80908 13.6572 10.0227 13.5878 10.23C13.1091 11.6537 11.7497 12.6805 10.1456 12.6805H9.85421C7.85139 12.6805 6.22799 11.0774 6.22799 9.10039V5.24765C6.22799 3.26986 7.85139 1.66675 9.85421 1.66675H10.1456Z" fill="#5E5E5E"/>
</svg>
